<svg width="620" height="81" viewBox="0 0 620 81" fill="none" xmlns="http://www.w3.org/2000/svg">
<path d="M0.738001 79V9.04H34.764C43.3853 9.11066 49.7453 10.7713 53.844 14.022C57.9427 17.202 59.992 21.8307 59.992 27.908C59.992 31.8653 58.826 35.2927 56.494 38.19C54.162 41.0167 50.5933 42.8187 45.788 43.596V43.702C51.1587 44.4087 55.1513 46.2813 57.766 49.32C60.4513 52.288 61.794 55.892 61.794 60.132C61.794 66.1387 59.674 70.8027 55.434 74.124C51.194 77.3747 44.834 79 36.354 79H0.738001ZM18.334 66.174H33.28C36.6013 66.174 39.0747 65.5027 40.7 64.16C42.3253 62.8173 43.138 60.874 43.138 58.33C43.138 55.8567 42.3253 53.984 40.7 52.712C39.0747 51.3693 36.6013 50.698 33.28 50.698H18.334V66.174ZM18.334 37.66H31.584C38.0853 37.66 41.336 35.116 41.336 30.028C41.336 24.94 38.0853 22.396 31.584 22.396H18.334V37.66ZM106.589 9.04C114.928 9.04 121.394 11.0187 125.987 14.976C130.651 18.8627 132.983 24.0567 132.983 30.558C132.983 37.6953 130.686 43.1367 126.093 46.882C121.5 50.6273 115.034 52.5 106.695 52.5L104.999 53.454H91.1129V79H73.1989V9.04H106.589ZM104.045 40.522C107.578 40.522 110.228 39.8153 111.995 38.402C113.762 36.9887 114.645 34.7273 114.645 31.618C114.645 28.5793 113.762 26.3533 111.995 24.94C110.228 23.5267 107.578 22.82 104.045 22.82H91.1129V40.522H104.045ZM114.751 44.338L137.117 79H116.977L99.0629 48.366L114.751 44.338ZM209.881 79H191.119L186.243 63.206H162.287L157.305 79H138.967L163.559 9.04H185.395L209.881 79ZM165.679 50.804H182.851L174.265 22.502L165.679 50.804ZM228.511 71.368L225.331 65.22H274.197V79H214.201V65.856L258.827 16.672L262.007 22.82H214.943V9.04H272.925V22.184L228.511 71.368ZM303.431 9.04V79H285.199V9.04H303.431ZM337.177 64.902H372.263V79H318.945V9.04H337.177V64.902ZM379.107 79V77.304L388.859 76.244H390.343L399.989 77.304V79H379.107ZM379.107 9.676V7.98H390.555V10.948H390.131L379.107 9.676ZM388.117 79V9.04H390.979V40.84V79H388.117ZM414.617 79L390.661 13.598H388.647V7.98H396.915L419.387 70.096H417.267L417.691 68.824L439.951 7.98H441.859V12.856H441.223L440.905 13.598L416.949 79H414.617ZM432.425 79V77.304L442.601 76.032H445.781L456.805 77.304V79H432.425ZM439.951 79C440.092 76.1733 440.198 72.8873 440.269 69.142C440.339 65.326 440.375 61.3687 440.375 57.27C440.445 53.1713 440.481 49.2493 440.481 45.504V7.98H448.431C448.289 10.8067 448.183 14.0927 448.113 17.838C448.042 21.5127 448.007 25.364 448.007 29.392C448.007 33.3493 448.007 37.1653 448.007 40.84V45.504C448.007 49.2493 448.007 53.1713 448.007 57.27C448.007 61.3687 448.042 65.326 448.113 69.142C448.183 72.8873 448.289 76.1733 448.431 79H439.951ZM442.601 10.948V7.98H456.805V9.676L445.781 10.948H442.601ZM485.53 80.272C481.643 80.272 478.039 79.3533 474.718 77.516C471.396 75.608 468.711 72.8167 466.662 69.142C464.612 65.3967 463.588 60.768 463.588 55.256C463.588 49.744 464.612 45.1153 466.662 41.37C468.711 37.554 471.396 34.692 474.718 32.784C478.039 30.8053 481.643 29.816 485.53 29.816C489.416 29.816 493.02 30.77 496.342 32.678C499.663 34.5153 502.348 37.2713 504.398 40.946C506.447 44.6207 507.472 49.2493 507.472 54.832C507.472 60.2733 506.447 64.902 504.398 68.718C502.348 72.534 499.663 75.4313 496.342 77.41C493.02 79.318 489.416 80.272 485.53 80.272ZM485.53 78.046C488.427 78.046 490.936 77.1627 493.056 75.396C495.176 73.5587 496.801 70.9087 497.932 67.446C499.062 63.9833 499.628 59.7787 499.628 54.832C499.628 49.8853 499.062 45.7513 497.932 42.43C496.801 39.038 495.176 36.4587 493.056 34.692C490.936 32.9253 488.427 32.042 485.53 32.042C482.632 32.042 480.088 32.9607 477.898 34.798C475.778 36.5647 474.152 39.1793 473.022 42.642C471.891 46.1047 471.326 50.3093 471.326 55.256C471.326 60.132 471.891 64.266 473.022 67.658C474.152 71.05 475.778 73.6293 477.898 75.396C480.088 77.1627 482.632 78.046 485.53 78.046ZM539.461 80.272C535.575 80.272 531.971 79.3533 528.649 77.516C525.328 75.608 522.643 72.8167 520.593 69.142C518.544 65.3967 517.519 60.768 517.519 55.256C517.519 49.744 518.544 45.1153 520.593 41.37C522.643 37.554 525.328 34.692 528.649 32.784C531.971 30.8053 535.575 29.816 539.461 29.816C543.348 29.816 546.952 30.77 550.273 32.678C553.595 34.5153 556.28 37.2713 558.329 40.946C560.379 44.6207 561.403 49.2493 561.403 54.832C561.403 60.2733 560.379 64.902 558.329 68.718C556.28 72.534 553.595 75.4313 550.273 77.41C546.952 79.318 543.348 80.272 539.461 80.272ZM539.461 78.046C542.359 78.046 544.867 77.1627 546.987 75.396C549.107 73.5587 550.733 70.9087 551.863 67.446C552.994 63.9833 553.559 59.7787 553.559 54.832C553.559 49.8853 552.994 45.7513 551.863 42.43C550.733 39.038 549.107 36.4587 546.987 34.692C544.867 32.9253 542.359 32.042 539.461 32.042C536.564 32.042 534.02 32.9607 531.829 34.798C529.709 36.5647 528.084 39.1793 526.953 42.642C525.823 46.1047 525.257 50.3093 525.257 55.256C525.257 60.132 525.823 64.266 526.953 67.658C528.084 71.05 529.709 73.6293 531.829 75.396C534.02 77.1627 536.564 78.046 539.461 78.046ZM590.637 80.272C587.174 80.272 583.994 79.3887 581.097 77.622C578.2 75.7847 575.868 73.0993 574.101 69.566C572.334 65.962 571.451 61.4747 571.451 56.104C571.451 50.5213 572.37 45.7867 574.207 41.9C576.115 37.9427 578.624 34.9393 581.733 32.89C584.842 30.8407 588.234 29.816 591.909 29.816C593.817 29.816 595.654 30.134 597.421 30.77C599.258 31.406 600.954 32.4307 602.509 33.844C604.134 35.2573 605.583 37.1653 606.855 39.568H608.339L607.597 42.218C604.982 39.1087 602.615 36.9533 600.495 35.752C598.446 34.48 595.972 33.844 593.075 33.844C590.531 33.844 588.164 34.6567 585.973 36.282C583.853 37.8367 582.157 40.2393 580.885 43.49C579.613 46.7407 578.977 50.804 578.977 55.68C578.977 60.4147 579.578 64.3013 580.779 67.34C581.98 70.3787 583.641 72.64 585.761 74.124C587.952 75.608 590.39 76.35 593.075 76.35C595.972 76.35 598.552 75.4313 600.813 73.594C603.074 71.7567 605.194 69.3893 607.173 66.492L607.809 69.566H606.431C605.371 71.5447 604.064 73.3467 602.509 74.972C600.954 76.5973 599.188 77.9047 597.209 78.894C595.23 79.8127 593.04 80.272 590.637 80.272ZM605.477 80.06V69.99V69.672V39.144V38.296V7.238L597.527 5.436V3.952L612.155 0.135998L613.003 0.983994L612.579 21.76V76.35L619.893 77.304V79L605.477 80.06Z" fill="white"/>
</svg>
