<svg width="545" height="91" viewBox="0 0 545 91" fill="none" xmlns="http://www.w3.org/2000/svg">
<path d="M392.669 39.786C392.801 39.786 392.867 39.984 392.867 40.38C392.867 40.776 392.801 40.974 392.669 40.974C390.953 40.974 389.501 41.502 388.313 42.558C387.191 43.614 386.102 45.495 385.046 48.201L372.671 77.901C372.539 78.231 372.176 78.396 371.582 78.396C370.988 78.396 370.625 78.231 370.493 77.901L356.633 48.003C355.313 45.165 354.191 43.284 353.267 42.36C352.409 41.436 351.32 40.974 350 40.974C349.802 40.974 349.703 40.776 349.703 40.38C349.703 39.984 349.802 39.786 350 39.786C351.32 39.786 352.343 39.819 353.069 39.885L356.831 39.984L363.266 39.885C364.256 39.819 365.576 39.786 367.226 39.786C367.424 39.786 367.523 39.984 367.523 40.38C367.523 40.776 367.424 40.974 367.226 40.974C363.266 40.974 361.286 41.766 361.286 43.35C361.286 43.812 361.418 44.307 361.682 44.835L373.76 70.377L383.066 47.706C383.528 46.452 383.759 45.495 383.759 44.835C383.759 43.515 383.132 42.558 381.878 41.964C380.624 41.304 378.644 40.974 375.938 40.974C375.806 40.974 375.74 40.776 375.74 40.38C375.74 39.984 375.806 39.786 375.938 39.786C377.72 39.786 379.073 39.819 379.997 39.885L385.937 39.984L389.402 39.885C390.062 39.819 391.151 39.786 392.669 39.786ZM406.489 27.312C405.103 27.312 404.014 26.949 403.222 26.223C402.496 25.497 402.133 24.474 402.133 23.154C402.133 21.834 402.496 20.811 403.222 20.085C404.014 19.359 405.103 18.996 406.489 18.996C407.809 18.996 408.832 19.359 409.558 20.085C410.284 20.811 410.647 21.834 410.647 23.154C410.647 24.474 410.284 25.497 409.558 26.223C408.832 26.949 407.809 27.312 406.489 27.312ZM398.173 78C398.041 78 397.975 77.802 397.975 77.406C397.975 77.01 398.041 76.812 398.173 76.812C399.955 76.812 401.275 76.647 402.133 76.317C403.057 75.921 403.684 75.261 404.014 74.337C404.344 73.347 404.509 71.895 404.509 69.981V51.468C404.509 49.092 404.245 47.376 403.717 46.32C403.255 45.264 402.43 44.736 401.242 44.736C400.054 44.736 398.569 45.198 396.787 46.122H396.688C396.424 46.122 396.226 45.957 396.094 45.627C395.962 45.297 395.995 45.066 396.193 44.934L409.063 38.994L409.459 38.895C409.591 38.895 409.756 38.994 409.954 39.192C410.152 39.324 410.251 39.489 410.251 39.687C410.251 40.149 410.218 41.469 410.152 43.647C410.086 45.825 410.053 48.399 410.053 51.369V69.981C410.053 71.961 410.218 73.413 410.548 74.337C410.878 75.261 411.472 75.921 412.33 76.317C413.188 76.647 414.508 76.812 416.29 76.812C416.488 76.812 416.587 77.01 416.587 77.406C416.587 77.802 416.488 78 416.29 78C414.772 78 413.551 77.967 412.627 77.901L407.281 77.802L401.935 77.901C401.011 77.967 399.757 78 398.173 78ZM450.884 38.499C453.722 38.499 456.362 39.192 458.804 40.578C461.246 41.964 463.193 44.043 464.645 46.815C466.097 49.521 466.823 52.854 466.823 56.814C466.823 61.566 465.767 65.658 463.655 69.09C461.609 72.456 458.903 74.997 455.537 76.713C452.237 78.429 448.739 79.287 445.043 79.287C439.961 79.287 435.473 77.835 431.579 74.931L424.055 78.495H423.857C423.593 78.495 423.428 78.363 423.362 78.099C423.296 77.835 423.362 77.637 423.56 77.505C425.672 76.053 427.157 74.7 428.015 73.446C428.873 72.126 429.302 70.245 429.302 67.803V18.897C429.302 16.521 429.038 14.805 428.51 13.749C428.048 12.693 427.223 12.165 426.035 12.165C425.111 12.165 423.626 12.594 421.58 13.452H421.382C421.184 13.452 421.019 13.287 420.887 12.957C420.821 12.627 420.887 12.429 421.085 12.363L433.46 6.324L433.955 6.225C434.087 6.225 434.252 6.324 434.45 6.52199C434.714 6.654 434.846 6.819 434.846 7.017V47.112C437.354 44.472 439.862 42.393 442.37 40.875C444.878 39.291 447.716 38.499 450.884 38.499ZM448.112 77.406C451.94 77.406 454.91 75.921 457.022 72.951C459.2 69.981 460.289 65.724 460.289 60.18C460.289 54.24 459.134 49.686 456.824 46.518C454.514 43.35 451.445 41.766 447.617 41.766C445.373 41.766 443.228 42.393 441.182 43.647C439.136 44.835 437.024 46.518 434.846 48.696V64.932C434.846 67.836 435.539 70.212 436.925 72.06C438.377 73.908 440.126 75.261 442.172 76.119C444.218 76.977 446.198 77.406 448.112 77.406ZM506.499 72.456C506.697 72.456 506.862 72.588 506.994 72.852C507.192 73.05 507.225 73.248 507.093 73.446C502.605 77.274 497.787 79.188 492.639 79.188C488.745 79.188 485.379 78.297 482.541 76.515C479.703 74.733 477.558 72.423 476.106 69.585C474.72 66.681 474.027 63.546 474.027 60.18C474.027 56.22 474.951 52.623 476.799 49.389C478.713 46.155 481.287 43.614 484.521 41.766C487.755 39.852 491.352 38.895 495.312 38.895C498.876 38.895 501.648 39.786 503.628 41.568C505.608 43.284 506.598 45.66 506.598 48.696C506.598 49.488 506.499 50.082 506.301 50.478C506.169 50.808 505.872 50.973 505.41 50.973L481.056 51.171C480.726 52.953 480.561 54.669 480.561 56.319C480.561 62.061 481.947 66.747 484.719 70.377C487.491 73.941 491.319 75.723 496.203 75.723C499.965 75.723 503.364 74.634 506.4 72.456H506.499ZM491.946 40.875C489.24 40.875 486.963 41.667 485.115 43.251C483.333 44.769 482.079 46.947 481.353 49.785L499.767 49.389C499.767 46.683 499.041 44.604 497.589 43.152C496.203 41.634 494.322 40.875 491.946 40.875ZM520.775 45.825C520.775 48.135 521.534 49.983 523.052 51.369C524.57 52.689 526.814 54.108 529.784 55.626C532.094 56.814 533.876 57.837 535.13 58.695C536.45 59.553 537.572 60.675 538.496 62.061C539.42 63.447 539.882 65.13 539.882 67.11C539.882 70.476 538.628 73.314 536.12 75.624C533.612 77.934 530.213 79.089 525.923 79.089C522.425 79.089 519.257 78.099 516.419 76.119C516.023 75.855 515.825 75.459 515.825 74.931L515.627 67.209C515.627 67.011 515.792 66.912 516.122 66.912C516.518 66.846 516.749 66.912 516.815 67.11C518.069 70.41 519.686 72.918 521.666 74.634C523.712 76.35 526.055 77.208 528.695 77.208C530.741 77.208 532.325 76.746 533.447 75.822C534.635 74.832 535.229 73.38 535.229 71.466C535.229 69.618 534.8 68.067 533.942 66.813C533.15 65.493 532.16 64.47 530.972 63.744C529.784 62.952 528.167 62.028 526.121 60.972C523.943 59.916 522.194 58.959 520.874 58.101C519.62 57.243 518.531 56.121 517.607 54.735C516.749 53.349 516.32 51.633 516.32 49.587C516.32 46.023 517.64 43.317 520.28 41.469C522.986 39.555 526.154 38.598 529.784 38.598C532.424 38.598 534.833 39.093 537.011 40.083C537.407 40.215 537.638 40.38 537.704 40.578C537.836 40.71 537.902 40.908 537.902 41.172C537.902 42.492 537.869 43.515 537.803 44.241L537.704 48.399C537.704 48.531 537.506 48.597 537.11 48.597C536.714 48.597 536.516 48.531 536.516 48.399C536.516 47.013 535.988 45.726 534.932 44.538C533.876 43.284 532.556 42.294 530.972 41.568C529.388 40.842 527.804 40.479 526.22 40.479C524.504 40.479 523.151 40.941 522.161 41.865C521.237 42.723 520.775 44.043 520.775 45.825Z" fill="white"/>
<path d="M69.992 77H51.584L46.8 61.504H23.296L18.408 77H0.416L24.544 8.36H45.968L69.992 77ZM26.624 49.336H43.472L35.048 21.568L26.624 49.336ZM130.979 8.36V49.024C130.979 58.7307 128.379 66.0107 123.179 70.864C118.048 75.648 110.422 78.04 100.299 78.04C90.2457 78.04 82.6191 75.648 77.4191 70.864C72.2191 66.0107 69.6191 58.7307 69.6191 49.024V8.36H87.6111V49.336C87.6111 54.2587 88.6511 57.9333 90.7311 60.36C92.8804 62.7867 96.0697 64 100.299 64C104.598 64 107.787 62.7867 109.867 60.36C112.016 57.9333 113.091 54.2587 113.091 49.336V8.36H130.979ZM167.479 7.32C173.858 7.32 179.474 8.32533 184.327 10.336C189.25 12.2773 193.514 15.1547 197.119 18.968L188.487 30.512C185.506 27.392 182.282 25.0693 178.815 23.544C175.418 21.9493 171.535 21.152 167.167 21.152C164.602 21.152 162.522 21.4293 160.927 21.984C159.332 22.5387 158.188 23.3013 157.495 24.272C156.802 25.2427 156.455 26.352 156.455 27.6C156.455 29.056 157.114 30.304 158.431 31.344C159.818 32.3147 162.036 33.1467 165.087 33.84L176.631 36.44C183.495 38.0347 188.522 40.3573 191.711 43.408C194.9 46.4587 196.495 50.5147 196.495 55.576C196.495 60.4293 195.247 64.5547 192.751 67.952C190.255 71.28 186.823 73.8107 182.455 75.544C178.087 77.208 173.095 78.04 167.479 78.04C162.903 78.04 158.535 77.5547 154.375 76.584C150.215 75.544 146.471 74.088 143.143 72.216C139.815 70.344 137.007 68.1947 134.719 65.768L143.351 53.808C145.084 55.8187 147.199 57.6213 149.695 59.216C152.26 60.7413 155.034 61.9547 158.015 62.856C161.066 63.7573 164.151 64.208 167.271 64.208C169.698 64.208 171.708 63.9653 173.303 63.48C174.967 62.9947 176.18 62.2667 176.943 61.296C177.706 60.3253 178.087 59.1813 178.087 57.864C178.087 56.408 177.567 55.1947 176.527 54.224C175.487 53.184 173.511 52.3173 170.599 51.624L157.911 48.816C154.028 47.9147 150.562 46.736 147.511 45.28C144.53 43.7547 142.172 41.744 140.439 39.248C138.706 36.6827 137.839 33.4933 137.839 29.68C137.839 25.3813 139.018 21.568 141.375 18.24C143.732 14.8427 147.13 12.1733 151.567 10.232C156.004 8.29066 161.308 7.32 167.479 7.32ZM230.35 7.32C236.729 7.32 242.345 8.32533 247.198 10.336C252.121 12.2773 256.385 15.1547 259.99 18.968L251.358 30.512C248.377 27.392 245.153 25.0693 241.686 23.544C238.289 21.9493 234.406 21.152 230.038 21.152C227.473 21.152 225.393 21.4293 223.798 21.984C222.204 22.5387 221.06 23.3013 220.366 24.272C219.673 25.2427 219.326 26.352 219.326 27.6C219.326 29.056 219.985 30.304 221.302 31.344C222.689 32.3147 224.908 33.1467 227.958 33.84L239.502 36.44C246.366 38.0347 251.393 40.3573 254.582 43.408C257.772 46.4587 259.366 50.5147 259.366 55.576C259.366 60.4293 258.118 64.5547 255.622 67.952C253.126 71.28 249.694 73.8107 245.326 75.544C240.958 77.208 235.966 78.04 230.35 78.04C225.774 78.04 221.406 77.5547 217.246 76.584C213.086 75.544 209.342 74.088 206.014 72.216C202.686 70.344 199.878 68.1947 197.59 65.768L206.222 53.808C207.956 55.8187 210.07 57.6213 212.566 59.216C215.132 60.7413 217.905 61.9547 220.886 62.856C223.937 63.7573 227.022 64.208 230.142 64.208C232.569 64.208 234.58 63.9653 236.174 63.48C237.838 62.9947 239.052 62.2667 239.814 61.296C240.577 60.3253 240.958 59.1813 240.958 57.864C240.958 56.408 240.438 55.1947 239.398 54.224C238.358 53.184 236.382 52.3173 233.47 51.624L220.782 48.816C216.9 47.9147 213.433 46.736 210.382 45.28C207.401 43.7547 205.044 41.744 203.31 39.248C201.577 36.6827 200.71 33.4933 200.71 29.68C200.71 25.3813 201.889 21.568 204.246 18.24C206.604 14.8427 210.001 12.1733 214.438 10.232C218.876 8.29066 224.18 7.32 230.35 7.32ZM284.277 8.36V77H266.389V8.36H284.277ZM295.339 77V8.36H348.795V22.192H313.227V36.128H341.515V49.128H313.227V63.168H350.147V77H295.339Z" fill="white"/>
</svg>
